<svg viewBox="162 62 356 356" xmlns="http://www.w3.org/2000/svg">
  <defs>
    <radialGradient id="sweep-fade" cx="50%" cy="50%" r="50%">
      <stop offset="0%" stop-color="#3B82F6" stop-opacity="0.55"/>
      <stop offset="100%" stop-color="#3B82F6" stop-opacity="0"/>
    </radialGradient>
    <clipPath id="circle-clip">
      <circle cx="340" cy="240" r="164"/>
    </clipPath>
  </defs>

  <circle cx="340" cy="240" r="178" fill="#0F172A" opacity="0.92"/>

  <circle cx="340" cy="240" r="54"  fill="none" stroke="#3B82F6" stroke-width="0.8" opacity="0.33"/>
  <circle cx="340" cy="240" r="108" fill="none" stroke="#3B82F6" stroke-width="0.8" opacity="0.20"/>
  <circle cx="340" cy="240" r="162" fill="none" stroke="#3B82F6" stroke-width="0.8" opacity="0.14"/>

  <line x1="340" y1="80"  x2="340" y2="400" stroke="#3B82F6" stroke-width="0.5" opacity="0.18"/>
  <line x1="180" y1="240" x2="500" y2="240" stroke="#3B82F6" stroke-width="0.5" opacity="0.18"/>
  <line x1="227" y1="127" x2="453" y2="353" stroke="#3B82F6" stroke-width="0.5" opacity="0.10"/>
  <line x1="453" y1="127" x2="227" y2="353" stroke="#3B82F6" stroke-width="0.5" opacity="0.10"/>

  <path d="M340,240 L340,80 A160,160 0 0,1 453,127 Z" fill="url(#sweep-fade)" opacity="0.7" clip-path="url(#circle-clip)"/>
  <line x1="340" y1="240" x2="340" y2="80" stroke="#3B82F6" stroke-width="1.4" opacity="0.9"/>

  <circle cx="340" cy="240" r="5"  fill="#3B82F6" opacity="0.95"/>
  <circle cx="340" cy="240" r="10" fill="none" stroke="#3B82F6" stroke-width="1" opacity="0.4"/>

  <circle cx="383" cy="197" r="6" fill="#38BDF8" opacity="0.95"/>
  <rect   x="376" y="193" width="14" height="9" rx="1.5" fill="none" stroke="#38BDF8" stroke-width="1.2" opacity="0.8"/>
  <line x1="376" y1="202" x2="390" y2="202" stroke="#38BDF8" stroke-width="1.2" opacity="0.8"/>

  <circle cx="288" cy="175" r="6" fill="#34D399" opacity="0.95"/>
  <rect   x="283" y="169" width="10" height="16" rx="2" fill="none" stroke="#34D399" stroke-width="1.2" opacity="0.8"/>
  <circle cx="288" cy="182" r="1" fill="#34D399" opacity="0.8"/>

  <circle cx="410" cy="290" r="6" fill="#A78BFA" opacity="0.95"/>
  <rect   x="403" y="286" width="14" height="8" rx="1.5" fill="none" stroke="#A78BFA" stroke-width="1.2" opacity="0.8"/>
  <line x1="406" y1="286" x2="406" y2="282" stroke="#A78BFA" stroke-width="1.2" opacity="0.7"/>
  <line x1="410" y1="286" x2="410" y2="281" stroke="#A78BFA" stroke-width="1.2" opacity="0.7"/>
  <line x1="414" y1="286" x2="414" y2="282" stroke="#A78BFA" stroke-width="1.2" opacity="0.7"/>

  <circle cx="250" cy="305" r="6" fill="#FB923C" opacity="0.95"/>
  <rect   x="243" y="297" width="14" height="10" rx="1" fill="none" stroke="#FB923C" stroke-width="1.2" opacity="0.8"/>
  <line x1="250" y1="307" x2="250" y2="312" stroke="#FB923C" stroke-width="1.2" opacity="0.8"/>
  <line x1="246" y1="312" x2="254" y2="312" stroke="#FB923C" stroke-width="1.2" opacity="0.8"/>

  <circle cx="325" cy="295" r="5" fill="#F472B6" opacity="0.90"/>

  <circle cx="340" cy="240" r="178" fill="none" stroke="#3B82F6" stroke-width="1.2" opacity="0.35"/>
</svg>
